<svg width="966" height="969" viewBox="0 0 966 969" fill="none" xmlns="http://www.w3.org/2000/svg">
<mask id="path-1-inside-1_510_579" fill="white">
<path d="M483 3C419.572 3 356.764 15.4932 298.164 39.7662C239.564 64.0392 186.318 99.6167 141.467 144.467C96.6167 189.318 61.0392 242.564 36.7662 301.164C12.4931 359.764 -9.57743e-06 422.572 0 486L483 486L483 3Z"/>
</mask>
<path d="M483 3C419.572 3 356.764 15.4932 298.164 39.7662C239.564 64.0392 186.318 99.6167 141.467 144.467C96.6167 189.318 61.0392 242.564 36.7662 301.164C12.4931 359.764 -9.57743e-06 422.572 0 486L483 486L483 3Z" fill="#FBE787" stroke="white" stroke-width="4" mask="url(#path-1-inside-1_510_579)"/>
<mask id="path-2-inside-2_510_579" fill="white">
<path d="M483 966C419.572 966 356.764 953.507 298.164 929.234C239.564 904.961 186.318 869.383 141.467 824.533C96.6167 779.682 61.0392 726.436 36.7662 667.836C12.4932 609.236 -5.54509e-06 546.428 0 483L483 483L483 966Z"/>
</mask>
<path d="M483 966C419.572 966 356.764 953.507 298.164 929.234C239.564 904.961 186.318 869.383 141.467 824.533C96.6167 779.682 61.0392 726.436 36.7662 667.836C12.4932 609.236 -5.54509e-06 546.428 0 483L483 483L483 966Z" fill="#FBE787" stroke="white" stroke-width="4" mask="url(#path-2-inside-2_510_579)"/>
<mask id="path-3-inside-3_510_579" fill="white">
<path d="M483.5 117C434.977 117 386.928 126.544 342.098 145.088C297.269 163.632 256.535 190.813 222.224 225.078C187.913 259.342 160.696 300.021 142.126 344.79C123.557 389.559 114 437.542 114 486L483.5 486L483.5 117Z"/>
</mask>
<path d="M483.5 117C434.977 117 386.928 126.544 342.098 145.088C297.269 163.632 256.535 190.813 222.224 225.078C187.913 259.342 160.696 300.021 142.126 344.79C123.557 389.559 114 437.542 114 486L483.5 486L483.5 117Z" fill="#FBE787" stroke="white" stroke-width="4" mask="url(#path-3-inside-3_510_579)"/>
<mask id="path-4-inside-4_510_579" fill="white">
<path d="M483.5 852C434.977 852 386.928 842.456 342.098 823.912C297.269 805.368 256.535 778.187 222.224 743.922C187.913 709.658 160.696 668.979 142.127 624.21C123.557 579.441 114 531.458 114 483L483.5 483L483.5 852Z"/>
</mask>
<path d="M483.5 852C434.977 852 386.928 842.456 342.098 823.912C297.269 805.368 256.535 778.187 222.224 743.922C187.913 709.658 160.696 668.979 142.127 624.21C123.557 579.441 114 531.458 114 483L483.5 483L483.5 852Z" fill="#FBE787" stroke="white" stroke-width="4" mask="url(#path-4-inside-4_510_579)"/>
<mask id="path-5-inside-5_510_579" fill="white">
<path d="M482.5 233C449.473 233 416.768 239.505 386.255 252.144C355.742 264.783 328.017 283.309 304.663 306.663C281.309 330.017 262.783 357.742 250.144 388.255C237.505 418.769 231 451.473 231 484.5L482.5 484.5L482.5 233Z"/>
</mask>
<path d="M482.5 233C449.473 233 416.768 239.505 386.255 252.144C355.742 264.783 328.017 283.309 304.663 306.663C281.309 330.017 262.783 357.742 250.144 388.255C237.505 418.769 231 451.473 231 484.5L482.5 484.5L482.5 233Z" fill="#FBE787" stroke="white" stroke-width="4" mask="url(#path-5-inside-5_510_579)"/>
<mask id="path-6-inside-6_510_579" fill="white">
<path d="M482.5 734C449.473 734 416.768 727.495 386.255 714.856C355.742 702.217 328.017 683.691 304.663 660.337C281.309 636.983 262.783 609.258 250.144 578.745C237.505 548.231 231 515.527 231 482.5L482.5 482.5L482.5 734Z"/>
</mask>
<path d="M482.5 734C449.473 734 416.768 727.495 386.255 714.856C355.742 702.217 328.017 683.691 304.663 660.337C281.309 636.983 262.783 609.258 250.144 578.745C237.505 548.231 231 515.527 231 482.5L482.5 482.5L482.5 734Z" fill="#FBE787" stroke="white" stroke-width="4" mask="url(#path-6-inside-6_510_579)"/>
<path d="M484 626C465.615 626 447.41 622.366 430.424 615.305C413.439 608.244 398.005 597.895 385.005 584.848C372.005 571.802 361.692 556.313 354.657 539.267C347.621 522.221 344 503.951 344 485.5C344 467.049 347.621 448.779 354.657 431.733C361.693 414.687 372.005 399.198 385.005 386.151C398.005 373.105 413.439 362.756 430.424 355.695C447.41 348.634 465.615 345 484 345L484 485.5L484 626Z" fill="white"/>
<path d="M483.5 563C473.323 563 463.245 560.995 453.842 557.101C444.439 553.206 435.896 547.497 428.699 540.301C421.503 533.104 415.794 524.561 411.899 515.158C408.005 505.755 406 495.677 406 485.5C406 475.323 408.005 465.245 411.899 455.842C415.794 446.439 421.503 437.896 428.699 430.699C435.896 423.503 444.439 417.794 453.842 413.899C463.245 410.005 473.323 408 483.5 408L483.5 485.5L483.5 563Z" fill="#7A4A7B"/>
</svg>
