<svg width="966" height="969" viewBox="0 0 966 969" fill="none" xmlns="http://www.w3.org/2000/svg">
<mask id="path-1-inside-1_510_604" fill="white">
<path d="M483 3C419.572 3 356.764 15.4932 298.164 39.7662C239.564 64.0392 186.318 99.6167 141.467 144.467C96.6167 189.318 61.0392 242.564 36.7662 301.164C12.4931 359.764 -9.57743e-06 422.572 0 486L483 486L483 3Z"/>
</mask>
<path d="M483 3C419.572 3 356.764 15.4932 298.164 39.7662C239.564 64.0392 186.318 99.6167 141.467 144.467C96.6167 189.318 61.0392 242.564 36.7662 301.164C12.4931 359.764 -9.57743e-06 422.572 0 486L483 486L483 3Z" fill="#FBE787" stroke="white" stroke-width="4" mask="url(#path-1-inside-1_510_604)"/>
<mask id="path-2-inside-2_510_604" fill="white">
<path d="M483 966C419.572 966 356.764 953.507 298.164 929.234C239.564 904.961 186.318 869.383 141.467 824.533C96.6167 779.682 61.0392 726.436 36.7662 667.836C12.4932 609.236 -5.54509e-06 546.428 0 483L483 483L483 966Z"/>
</mask>
<path d="M483 966C419.572 966 356.764 953.507 298.164 929.234C239.564 904.961 186.318 869.383 141.467 824.533C96.6167 779.682 61.0392 726.436 36.7662 667.836C12.4932 609.236 -5.54509e-06 546.428 0 483L483 483L483 966Z" fill="#FBE787" stroke="white" stroke-width="4" mask="url(#path-2-inside-2_510_604)"/>
<mask id="path-3-inside-3_510_604" fill="white">
<path d="M966 483C966 546.428 953.507 609.236 929.234 667.836C904.961 726.436 869.383 779.682 824.533 824.533C779.682 869.383 726.436 904.961 667.836 929.234C609.236 953.507 546.428 966 483 966L483 483H966Z"/>
</mask>
<path d="M966 483C966 546.428 953.507 609.236 929.234 667.836C904.961 726.436 869.383 779.682 824.533 824.533C779.682 869.383 726.436 904.961 667.836 929.234C609.236 953.507 546.428 966 483 966L483 483H966Z" fill="#99B7DD" stroke="white" stroke-width="4" mask="url(#path-3-inside-3_510_604)"/>
<mask id="path-4-inside-4_510_604" fill="white">
<path d="M966 484.5C966 421.269 953.507 358.656 929.234 300.238C904.961 241.82 869.383 188.739 824.533 144.028C779.682 99.3167 726.436 63.8496 667.836 39.652C609.236 15.4544 546.428 3 483 3L483 484.5H966Z"/>
</mask>
<path d="M966 484.5C966 421.269 953.507 358.656 929.234 300.238C904.961 241.82 869.383 188.739 824.533 144.028C779.682 99.3167 726.436 63.8496 667.836 39.652C609.236 15.4544 546.428 3 483 3L483 484.5H966Z" fill="#99B7DD" stroke="white" stroke-width="4" mask="url(#path-4-inside-4_510_604)"/>
<mask id="path-5-inside-5_510_604" fill="white">
<path d="M483.5 117C434.977 117 386.928 126.544 342.098 145.088C297.269 163.632 256.535 190.813 222.224 225.078C187.913 259.342 160.696 300.021 142.126 344.79C123.557 389.559 114 437.542 114 486L483.5 486L483.5 117Z"/>
</mask>
<path d="M483.5 117C434.977 117 386.928 126.544 342.098 145.088C297.269 163.632 256.535 190.813 222.224 225.078C187.913 259.342 160.696 300.021 142.126 344.79C123.557 389.559 114 437.542 114 486L483.5 486L483.5 117Z" fill="#FBE787" stroke="white" stroke-width="4" mask="url(#path-5-inside-5_510_604)"/>
<mask id="path-6-inside-6_510_604" fill="white">
<path d="M483.5 852C434.977 852 386.928 842.456 342.098 823.912C297.269 805.368 256.535 778.187 222.224 743.922C187.913 709.658 160.696 668.979 142.127 624.21C123.557 579.441 114 531.458 114 483L483.5 483L483.5 852Z"/>
</mask>
<path d="M483.5 852C434.977 852 386.928 842.456 342.098 823.912C297.269 805.368 256.535 778.187 222.224 743.922C187.913 709.658 160.696 668.979 142.127 624.21C123.557 579.441 114 531.458 114 483L483.5 483L483.5 852Z" fill="#FBE787" stroke="white" stroke-width="4" mask="url(#path-6-inside-6_510_604)"/>
<mask id="path-7-inside-7_510_604" fill="white">
<path d="M853 483C853 531.458 843.443 579.441 824.873 624.21C806.304 668.979 779.087 709.658 744.776 743.922C710.465 778.187 669.731 805.368 624.902 823.912C580.072 842.456 532.023 852 483.5 852L483.5 483H853Z"/>
</mask>
<path d="M853 483C853 531.458 843.443 579.441 824.873 624.21C806.304 668.979 779.087 709.658 744.776 743.922C710.465 778.187 669.731 805.368 624.902 823.912C580.072 842.456 532.023 852 483.5 852L483.5 483H853Z" fill="#99B7DD" stroke="white" stroke-width="4" mask="url(#path-7-inside-7_510_604)"/>
<mask id="path-8-inside-8_510_604" fill="white">
<path d="M853 483C853 434.542 843.443 386.559 824.873 341.79C806.304 297.021 779.087 256.342 744.776 222.078C710.465 187.813 669.731 160.632 624.902 142.088C580.072 123.544 532.023 114 483.5 114L483.5 483H853Z"/>
</mask>
<path d="M853 483C853 434.542 843.443 386.559 824.873 341.79C806.304 297.021 779.087 256.342 744.776 222.078C710.465 187.813 669.731 160.632 624.902 142.088C580.072 123.544 532.023 114 483.5 114L483.5 483H853Z" fill="#99B7DD" stroke="white" stroke-width="4" mask="url(#path-8-inside-8_510_604)"/>
<mask id="path-9-inside-9_510_604" fill="white">
<path d="M482.5 233C449.473 233 416.768 239.505 386.255 252.144C355.742 264.783 328.017 283.309 304.663 306.663C281.309 330.017 262.783 357.742 250.144 388.255C237.505 418.769 231 451.473 231 484.5L482.5 484.5L482.5 233Z"/>
</mask>
<path d="M482.5 233C449.473 233 416.768 239.505 386.255 252.144C355.742 264.783 328.017 283.309 304.663 306.663C281.309 330.017 262.783 357.742 250.144 388.255C237.505 418.769 231 451.473 231 484.5L482.5 484.5L482.5 233Z" fill="#FBE787" stroke="white" stroke-width="4" mask="url(#path-9-inside-9_510_604)"/>
<mask id="path-10-inside-10_510_604" fill="white">
<path d="M482.5 734C449.473 734 416.768 727.495 386.255 714.856C355.742 702.217 328.017 683.691 304.663 660.337C281.309 636.983 262.783 609.258 250.144 578.745C237.505 548.231 231 515.527 231 482.5L482.5 482.5L482.5 734Z"/>
</mask>
<path d="M482.5 734C449.473 734 416.768 727.495 386.255 714.856C355.742 702.217 328.017 683.691 304.663 660.337C281.309 636.983 262.783 609.258 250.144 578.745C237.505 548.231 231 515.527 231 482.5L482.5 482.5L482.5 734Z" fill="#FBE787" stroke="white" stroke-width="4" mask="url(#path-10-inside-10_510_604)"/>
<mask id="path-11-inside-11_510_604" fill="white">
<path d="M734 482.5C734 515.527 727.495 548.231 714.856 578.745C702.217 609.258 683.691 636.983 660.337 660.337C636.983 683.691 609.258 702.217 578.745 714.856C548.231 727.495 515.527 734 482.5 734L482.5 482.5H734Z"/>
</mask>
<path d="M734 482.5C734 515.527 727.495 548.231 714.856 578.745C702.217 609.258 683.691 636.983 660.337 660.337C636.983 683.691 609.258 702.217 578.745 714.856C548.231 727.495 515.527 734 482.5 734L482.5 482.5H734Z" fill="#99B7DD" stroke="white" stroke-width="4" mask="url(#path-11-inside-11_510_604)"/>
<mask id="path-12-inside-12_510_604" fill="white">
<path d="M734 482.5C734 449.473 727.495 416.769 714.856 386.255C702.217 355.742 683.691 328.017 660.337 304.663C636.983 281.309 609.258 262.783 578.745 250.144C548.231 237.505 515.527 231 482.5 231L482.5 482.5H734Z"/>
</mask>
<path d="M734 482.5C734 449.473 727.495 416.769 714.856 386.255C702.217 355.742 683.691 328.017 660.337 304.663C636.983 281.309 609.258 262.783 578.745 250.144C548.231 237.505 515.527 231 482.5 231L482.5 482.5H734Z" fill="#99B7DD" stroke="white" stroke-width="4" mask="url(#path-12-inside-12_510_604)"/>
<path d="M479 342C516.13 342 551.74 356.803 577.995 383.151C604.25 409.5 619 445.237 619 482.5C619 519.763 604.25 555.5 577.995 581.848C551.74 608.197 516.13 623 479 623L479 482.5L479 342Z" fill="white"/>
<path d="M479 623C441.87 623 406.26 608.197 380.005 581.848C353.75 555.5 339 519.763 339 482.5C339 445.237 353.75 409.5 380.005 383.151C406.26 356.803 441.87 342 479 342L479 482.5L479 623Z" fill="white"/>
<path d="M478.5 405C488.677 405 498.755 407.005 508.158 410.899C517.561 414.794 526.104 420.503 533.301 427.699C540.497 434.896 546.206 443.439 550.101 452.842C553.995 462.245 556 472.323 556 482.5C556 492.677 553.995 502.755 550.101 512.158C546.206 521.561 540.497 530.104 533.301 537.301C526.104 544.497 517.561 550.206 508.158 554.101C498.755 557.995 488.677 560 478.5 560L478.5 482.5L478.5 405Z" fill="#7A4A7B"/>
<path d="M478.5 560C468.323 560 458.245 557.995 448.842 554.101C439.439 550.206 430.896 544.497 423.699 537.301C416.503 530.104 410.794 521.561 406.899 512.158C403.005 502.755 401 492.677 401 482.5C401 472.322 403.005 462.245 406.899 452.842C410.794 443.439 416.503 434.896 423.699 427.699C430.896 420.503 439.439 414.794 448.842 410.899C458.245 407.005 468.323 405 478.5 405L478.5 482.5L478.5 560Z" fill="#7A4A7B"/>
</svg>
